<?xml version="1.0" standalone="no"?>
<!DOCTYPE svg PUBLIC "-//W3C//DTD SVG 20010904//EN"
 "http://www.w3.org/TR/2001/REC-SVG-20010904/DTD/svg10.dtd">
<svg version="1.0" xmlns="http://www.w3.org/2000/svg"
 width="1450.000000pt" height="1450.000000pt" viewBox="0 0 1450.000000 1450.000000"
 preserveAspectRatio="xMidYMid meet">
<metadata>
Created by potrace 1.11, written by Peter Selinger 2001-2013
</metadata>
<g transform="translate(0.000000,1450.000000) scale(0.100000,-0.100000)"
fill="#000000" stroke="none">
<path d="M8475 13449 c-27 -4 -70 -10 -95 -14 -37 -5 -118 -21 -253 -50 -132
-29 -637 -199 -645 -217 -2 -5 -10 -8 -17 -8 -37 0 -651 -299 -720 -350 -5 -4
-37 -22 -70 -40 -33 -18 -76 -42 -95 -54 -19 -13 -78 -49 -130 -81 -139 -86
-413 -272 -585 -399 -138 -101 -422 -323 -453 -353 -7 -7 -16 -13 -20 -13 -4
0 -23 -15 -42 -33 -19 -17 -71 -61 -115 -97 -44 -35 -85 -69 -91 -75 -6 -5
-37 -32 -69 -60 -32 -27 -63 -54 -69 -60 -6 -5 -47 -41 -91 -80 -184 -162
-337 -308 -610 -580 -244 -244 -339 -343 -500 -520 -49 -54 -101 -110 -114
-124 -12 -14 -46 -52 -75 -84 -28 -33 -60 -69 -71 -81 -11 -13 -47 -53 -80
-91 -33 -38 -65 -73 -70 -79 -6 -6 -64 -74 -129 -151 -65 -77 -128 -151 -140
-165 -12 -14 -62 -74 -111 -135 -50 -60 -97 -119 -107 -130 -15 -18 -158 -197
-175 -220 -5 -5 -40 -50 -79 -100 -194 -246 -475 -633 -659 -907 -112 -166
-327 -504 -391 -613 -113 -196 -174 -301 -200 -350 -51 -94 -267 -525 -288
-575 -11 -25 -33 -74 -48 -109 -59 -130 -168 -411 -227 -586 -53 -159 -134
-432 -145 -489 -2 -12 -9 -41 -15 -66 -17 -66 -19 -76 -42 -189 -22 -109 -24
-120 -34 -186 -3 -22 -10 -67 -15 -100 -47 -306 -59 -799 -25 -1055 2 -19 7
-55 10 -80 9 -75 17 -134 22 -155 2 -11 8 -44 13 -73 15 -87 69 -288 105 -394
56 -162 171 -412 211 -459 8 -8 14 -19 14 -23 0 -14 109 -166 176 -246 209
-251 501 -457 819 -580 61 -24 119 -47 130 -51 25 -10 208 -59 244 -65 14 -3
32 -7 40 -10 8 -2 30 -7 50 -10 20 -2 45 -7 57 -9 221 -48 731 -55 1012 -15
40 5 93 13 119 16 26 3 49 7 53 9 3 2 26 6 50 10 223 32 702 182 980 307 25
11 65 29 90 40 60 27 382 188 395 198 6 4 41 25 80 45 70 39 164 94 297 174
109 66 442 289 555 372 116 85 242 179 263 196 251 199 502 406 605 500 11 10
58 52 105 93 47 41 87 77 90 80 3 3 30 28 60 55 514 466 1112 1071 1731 1750
25 27 71 77 102 111 l57 61 0 236 0 237 -157 -154 c-211 -206 -260 -253 -393
-376 -62 -58 -127 -118 -144 -135 -49 -45 -203 -185 -271 -245 -33 -29 -76
-67 -95 -84 -19 -17 -69 -60 -110 -96 -41 -36 -89 -77 -105 -91 -17 -15 -91
-77 -165 -138 -74 -62 -144 -120 -155 -129 -11 -9 -40 -33 -65 -52 -25 -19
-54 -43 -65 -52 -39 -33 -326 -254 -417 -320 -13 -9 -46 -34 -75 -55 -172
-126 -553 -382 -696 -469 -335 -202 -659 -372 -912 -478 -60 -26 -119 -51
-130 -56 -137 -65 -595 -202 -785 -235 -254 -43 -367 -53 -590 -50 -211 3
-222 5 -467 60 -47 11 -214 83 -285 124 -241 138 -439 356 -558 616 -30 66
-97 249 -104 288 -3 12 -11 51 -20 87 -21 92 -27 122 -40 230 -4 30 -9 73 -12
95 -10 74 -12 479 -4 560 15 143 21 189 26 225 115 741 427 1499 1029 2505
399 666 984 1471 1506 2070 15 17 77 89 140 160 62 72 133 153 158 180 298
329 379 413 666 700 277 277 475 464 639 606 22 19 51 45 65 58 14 13 89 76
166 140 774 648 1344 981 1725 1008 260 18 401 -130 402 -423 1 -442 -266
-1022 -855 -1859 -109 -154 -373 -503 -397 -525 -3 -3 -24 -27 -45 -55 -57
-71 -226 -269 -296 -346 -13 -14 -64 -70 -114 -124 -278 -305 -494 -495 -562
-495 -16 0 -27 8 -34 28 -13 34 -3 70 52 187 45 97 79 184 89 232 10 42 -11
73 -49 73 -26 0 -152 -73 -191 -111 -8 -8 -35 -30 -60 -49 -25 -19 -52 -41
-60 -50 -8 -8 -33 -30 -55 -49 -151 -128 -516 -485 -666 -651 -337 -375 -603
-719 -750 -968 -211 -360 -275 -676 -181 -887 75 -167 269 -325 447 -363 83
-18 209 -9 300 22 195 66 469 227 764 450 51 39 105 80 120 91 33 24 217 172
251 201 445 379 823 750 1295 1269 20 22 75 85 123 140 47 55 91 105 96 110
30 28 287 345 401 495 28 35 54 69 58 75 65 84 214 294 329 465 389 577 675
1123 827 1578 47 140 107 366 117 438 3 27 8 51 9 54 2 3 7 33 10 65 4 33 9
63 11 66 9 16 19 211 18 364 -1 167 -15 319 -40 425 -3 14 -8 36 -10 50 -13
75 -73 240 -124 345 -164 332 -416 524 -759 579 -89 14 -311 17 -396 5z"/>
<path d="M9559 7526 c-2 -2 -29 -6 -59 -10 -253 -28 -572 -113 -987 -264 l-83
-30 -9 36 c-6 21 -13 49 -17 65 -3 15 -10 29 -14 32 -6 4 -132 -55 -180 -85
-8 -5 -62 -35 -120 -66 -506 -271 -678 -408 -774 -615 -25 -54 -59 -172 -111
-384 -15 -60 -42 -159 -60 -220 -41 -135 -46 -160 -52 -255 -9 -136 29 -198
112 -187 44 6 356 160 540 267 72 41 197 110 201 110 3 0 21 10 42 23 20 13
82 48 137 77 55 30 136 74 180 97 187 101 669 335 777 377 241 96 420 136 583
133 204 -5 318 -89 302 -223 -4 -38 -61 -170 -99 -229 -47 -73 -260 -351 -287
-375 -3 -3 -42 -48 -86 -100 -44 -52 -84 -100 -90 -106 -5 -6 -37 -42 -70 -80
-33 -38 -80 -91 -105 -119 -25 -27 -49 -55 -55 -61 -50 -57 -164 -183 -180
-200 -11 -11 -38 -40 -59 -65 -22 -24 -83 -91 -135 -148 -197 -214 -195 -212
-287 -327 -68 -85 -296 -401 -478 -662 -28 -40 -73 -103 -99 -140 -79 -109
-114 -185 -147 -323 -30 -121 -35 -166 -34 -294 3 -242 79 -469 211 -626 30
-35 109 -87 157 -103 249 -85 650 203 1361 975 122 133 143 156 220 244 44 50
82 92 85 95 3 3 53 59 110 125 58 66 107 122 110 125 14 13 527 617 612 720
65 79 252 305 286 346 30 36 29 30 -19 -61 -28 -55 -67 -129 -86 -164 -71
-131 -333 -664 -333 -677 0 -2 -11 -27 -24 -56 -111 -245 -195 -513 -224 -711
-9 -69 -9 -387 1 -460 26 -190 153 -378 346 -512 235 -163 422 -133 831 133
47 31 87 58 90 61 3 3 34 28 70 56 168 128 454 395 615 575 154 172 393 496
522 706 263 430 310 513 471 834 59 118 120 244 136 280 82 185 114 260 182
428 71 172 152 389 159 422 2 8 10 33 18 55 27 70 67 210 112 388 38 153 43
183 41 277 -1 117 -24 201 -76 283 -53 83 -112 101 -175 52 -79 -59 -309 -362
-431 -565 -53 -88 -57 -99 -57 -155 1 -42 13 -97 41 -182 l39 -121 -85 -164
c-290 -558 -569 -1033 -816 -1388 -74 -107 -252 -349 -265 -360 -5 -4 -45 -53
-116 -140 -48 -59 -139 -155 -279 -295 -205 -205 -351 -319 -526 -412 -135
-72 -185 -77 -240 -24 -82 78 -80 167 6 399 20 53 45 115 55 138 112 251 268
555 411 806 51 90 97 171 103 181 71 126 321 529 586 942 185 289 351 562 457
755 84 154 102 193 102 225 0 64 -80 263 -141 352 -36 51 -87 103 -103 104 -6
0 -18 2 -27 4 -53 10 -342 -193 -514 -361 -115 -112 -202 -216 -385 -459 -149
-198 -441 -570 -460 -585 -3 -3 -35 -41 -70 -85 -35 -44 -67 -82 -70 -85 -3
-3 -27 -32 -55 -65 -27 -33 -54 -65 -60 -71 -5 -6 -30 -35 -55 -64 -25 -29
-50 -58 -55 -64 -6 -6 -82 -92 -170 -191 -87 -99 -175 -197 -195 -218 -19 -21
-48 -53 -64 -70 -16 -18 -57 -61 -90 -97 -34 -36 -104 -112 -156 -169 -52 -57
-115 -125 -140 -152 -25 -26 -94 -101 -155 -166 -192 -206 -557 -567 -643
-636 -208 -166 -335 -212 -412 -149 -46 38 -25 116 73 262 52 78 181 253 226
305 14 17 40 48 56 69 17 22 59 73 94 115 34 42 71 85 80 96 56 68 187 221
192 225 6 4 124 143 168 195 113 138 390 508 526 705 32 47 121 175 198 285
265 382 366 569 391 725 3 19 8 46 11 60 18 91 23 281 11 428 -17 195 -51 321
-115 419 -65 101 -193 175 -356 207 -44 9 -93 19 -110 22 -32 7 -410 16 -416
10z"/>
</g>
</svg>
